<svg width="353" height="128" viewBox="0 0 353 128" fill="none" xmlns="http://www.w3.org/2000/svg">
<path d="M25.472 40.064L26.88 49.92L26.624 49.152C28.8427 45.3973 31.616 42.496 34.944 40.448C38.272 38.3147 42.2827 37.248 46.976 37.248C50.048 37.248 52.736 37.6747 55.04 38.528C57.4293 39.3813 59.4347 40.6613 61.056 42.368C62.6773 43.9893 63.7867 46.1227 64.384 48.768L63.744 48.896C66.1333 45.3973 68.992 42.5813 72.32 40.448C75.7333 38.3147 79.2747 37.248 82.944 37.248C88.4907 37.248 92.8853 38.8267 96.128 41.984C99.456 45.056 101.163 49.0667 101.248 54.016V96H83.456V61.44C83.3707 58.9653 82.9867 56.96 82.304 55.424C81.6213 53.8027 80.0427 52.9067 77.568 52.736C74.6667 52.736 72.192 53.76 70.144 55.808C68.1813 57.7707 66.688 60.3307 65.664 63.488C64.7253 66.56 64.256 69.76 64.256 73.088V96H46.336V61.44C46.2507 58.9653 45.7813 56.96 44.928 55.424C44.16 53.8027 42.5387 52.9067 40.064 52.736C37.248 52.736 34.8587 53.76 32.896 55.808C31.0187 57.7707 29.568 60.288 28.544 63.36C27.6053 66.432 27.136 69.5893 27.136 72.832V96H9.216V40.064H25.472ZM108.964 67.328C108.964 61.6107 110.287 56.4907 112.932 51.968C115.663 47.4453 119.46 43.904 124.324 41.344C129.188 38.6987 134.777 37.376 141.092 37.376C147.492 37.376 153.039 38.6987 157.732 41.344C162.425 43.904 166.009 47.4453 168.484 51.968C171.044 56.4907 172.324 61.6107 172.324 67.328C172.324 73.0453 171.044 78.208 168.484 82.816C166.009 87.3387 162.425 90.9227 157.732 93.568C153.039 96.2133 147.407 97.536 140.836 97.536C134.692 97.536 129.188 96.3413 124.324 93.952C119.545 91.5627 115.791 88.1067 113.06 83.584C110.329 79.0613 108.964 73.6427 108.964 67.328ZM127.012 67.456C127.012 70.3573 127.609 73.0027 128.804 75.392C129.999 77.696 131.62 79.5307 133.668 80.896C135.716 82.2613 138.02 82.944 140.58 82.944C143.396 82.944 145.828 82.2613 147.876 80.896C149.924 79.5307 151.503 77.696 152.612 75.392C153.721 73.0027 154.276 70.3573 154.276 67.456C154.276 64.4693 153.721 61.824 152.612 59.52C151.503 57.216 149.924 55.3813 147.876 54.016C145.828 52.6507 143.396 51.968 140.58 51.968C138.02 51.968 135.716 52.6507 133.668 54.016C131.62 55.3813 129.999 57.216 128.804 59.52C127.609 61.824 127.012 64.4693 127.012 67.456ZM196.297 40.064L197.705 50.048L197.449 49.152C199.412 45.6533 202.185 42.8373 205.769 40.704C209.353 38.4853 213.748 37.376 218.953 37.376C224.244 37.376 228.638 38.9547 232.137 42.112C235.721 45.184 237.556 49.1947 237.641 54.144V96H219.721V60.8C219.636 58.3253 218.953 56.3627 217.673 54.912C216.478 53.376 214.43 52.608 211.529 52.608C208.798 52.608 206.409 53.504 204.361 55.296C202.313 57.088 200.734 59.52 199.625 62.592C198.516 65.664 197.961 69.2053 197.961 73.216V96H180.041V40.064H196.297ZM245.289 67.328C245.289 61.6107 246.612 56.4907 249.257 51.968C251.988 47.4453 255.785 43.904 260.649 41.344C265.513 38.6987 271.102 37.376 277.417 37.376C283.817 37.376 289.364 38.6987 294.057 41.344C298.75 43.904 302.334 47.4453 304.809 51.968C307.369 56.4907 308.649 61.6107 308.649 67.328C308.649 73.0453 307.369 78.208 304.809 82.816C302.334 87.3387 298.75 90.9227 294.057 93.568C289.364 96.2133 283.732 97.536 277.161 97.536C271.017 97.536 265.513 96.3413 260.649 93.952C255.87 91.5627 252.116 88.1067 249.385 83.584C246.654 79.0613 245.289 73.6427 245.289 67.328ZM263.337 67.456C263.337 70.3573 263.934 73.0027 265.129 75.392C266.324 77.696 267.945 79.5307 269.993 80.896C272.041 82.2613 274.345 82.944 276.905 82.944C279.721 82.944 282.153 82.2613 284.201 80.896C286.249 79.5307 287.828 77.696 288.937 75.392C290.046 73.0027 290.601 70.3573 290.601 67.456C290.601 64.4693 290.046 61.824 288.937 59.52C287.828 57.216 286.249 55.3813 284.201 54.016C282.153 52.6507 279.721 51.968 276.905 51.968C274.345 51.968 272.041 52.6507 269.993 54.016C267.945 55.3813 266.324 57.216 265.129 59.52C263.934 61.824 263.337 64.4693 263.337 67.456Z" fill="white"/>
<rect x="323" y="67" width="30" height="30" rx="15" fill="#F46D0B"/>
</svg>
