<svg width="106" height="19" viewBox="0 0 106 19" fill="none" xmlns="http://www.w3.org/2000/svg">
<path d="M4.97351 1.20712L5.40428 4.21012L5.32596 3.97612C6.00477 2.83211 6.85326 1.94812 7.87146 1.32412C8.88966 0.674131 10.1167 0.349121 11.5526 0.349121C12.4925 0.349121 13.3149 0.479131 14.0198 0.739121C14.7508 0.999111 15.3644 1.38911 15.8604 1.90912C16.3564 2.40311 16.6959 3.05313 16.8786 3.85912L16.6828 3.89812C17.4138 2.83211 18.2884 1.97411 19.3066 1.32412C20.3509 0.674131 21.4344 0.349121 22.557 0.349121C24.254 0.349121 25.5985 0.830131 26.5906 1.79212C27.6088 2.72812 28.1311 3.95013 28.1571 5.45812V18.2501H22.7137V7.72012C22.6876 6.96611 22.5701 6.35512 22.3612 5.88712C22.1523 5.39313 21.6694 5.12013 20.9122 5.06812C20.0246 5.06812 19.2674 5.38012 18.6409 6.00412C18.0404 6.60213 17.5835 7.38213 17.2702 8.34412C16.983 9.28012 16.8394 10.2551 16.8394 11.2691V18.2501H11.3568V7.72012C11.3307 6.96611 11.1871 6.35512 10.9261 5.88712C10.6911 5.39313 10.195 5.12013 9.43792 5.06812C8.57636 5.06812 7.84536 5.38012 7.24487 6.00412C6.67052 6.60213 6.22668 7.36912 5.91338 8.30512C5.62619 9.24112 5.48261 10.2031 5.48261 11.1911V18.2501H0V1.20712H4.97351ZM30.5178 9.51412C30.5178 7.77213 30.9226 6.21213 31.7318 4.83412C32.5674 3.45611 33.729 2.37712 35.2172 1.59712C36.7053 0.791131 38.4153 0.388121 40.3473 0.388121C42.3054 0.388121 44.0025 0.791131 45.4383 1.59712C46.8741 2.37712 47.9707 3.45611 48.7279 4.83412C49.5111 6.21213 49.9027 7.77213 49.9027 9.51412C49.9027 11.2561 49.5111 12.8291 48.7279 14.2331C47.9707 15.6111 46.8741 16.7031 45.4383 17.5091C44.0025 18.3151 42.2794 18.7181 40.269 18.7181C38.3893 18.7181 36.7053 18.3541 35.2172 17.6261C33.7551 16.8981 32.6065 15.8451 31.771 14.4671C30.9354 13.0891 30.5178 11.4381 30.5178 9.51412ZM36.0396 9.55312C36.0396 10.4371 36.2222 11.2431 36.5878 11.9711C36.9534 12.6731 37.4494 13.2321 38.076 13.6481C38.7026 14.0641 39.4075 14.2721 40.1907 14.2721C41.0522 14.2721 41.7963 14.0641 42.4229 13.6481C43.0495 13.2321 43.5326 12.6731 43.8719 11.9711C44.2112 11.2431 44.381 10.4371 44.381 9.55312C44.381 8.64311 44.2112 7.83712 43.8719 7.13512C43.5326 6.43312 43.0495 5.87411 42.4229 5.45812C41.7963 5.04213 41.0522 4.83412 40.1907 4.83412C39.4075 4.83412 38.7026 5.04213 38.076 5.45812C37.4494 5.87411 36.9534 6.43312 36.5878 7.13512C36.2222 7.83712 36.0396 8.64311 36.0396 9.55312ZM57.2372 1.20712L57.668 4.24912L57.5897 3.97612C58.1903 2.91011 59.0387 2.05211 60.1352 1.40212C61.2317 0.72611 62.5764 0.388121 64.1688 0.388121C65.7876 0.388121 67.1319 0.869131 68.2025 1.83112C69.299 2.76712 69.8604 3.98913 69.8864 5.49712V18.2501H64.4038V7.52512C64.3778 6.77111 64.1688 6.17313 63.7772 5.73112C63.4116 5.26312 62.785 5.02912 61.8975 5.02912C61.0619 5.02912 60.331 5.30212 59.7044 5.84812C59.0778 6.39412 58.5947 7.13512 58.2554 8.07112C57.9162 9.00712 57.7463 10.0861 57.7463 11.3081V18.2501H52.2637V1.20712H57.2372ZM72.2263 9.51412C72.2263 7.77213 72.6311 6.21213 73.4403 4.83412C74.2759 3.45611 75.4375 2.37712 76.9257 1.59712C78.4138 0.791131 80.1238 0.388121 82.0558 0.388121C84.0139 0.388121 85.711 0.791131 87.1468 1.59712C88.5826 2.37712 89.6792 3.45611 90.4364 4.83412C91.2196 6.21213 91.6112 7.77213 91.6112 9.51412C91.6112 11.2561 91.2196 12.8291 90.4364 14.2331C89.6792 15.6111 88.5826 16.7031 87.1468 17.5091C85.711 18.3151 83.9879 18.7181 81.9775 18.7181C80.0978 18.7181 78.4138 18.3541 76.9257 17.6261C75.4635 16.8981 74.315 15.8451 73.4795 14.4671C72.6439 13.0891 72.2263 11.4381 72.2263 9.51412ZM77.7481 9.55312C77.7481 10.4371 77.9307 11.2431 78.2963 11.9711C78.6619 12.6731 79.1579 13.2321 79.7845 13.6481C80.4111 14.0641 81.116 14.2721 81.8992 14.2721C82.7607 14.2721 83.5048 14.0641 84.1314 13.6481C84.758 13.2321 85.2411 12.6731 85.5804 11.9711C85.9197 11.2431 86.0895 10.4371 86.0895 9.55312C86.0895 8.64311 85.9197 7.83712 85.5804 7.13512C85.2411 6.43312 84.758 5.87411 84.1314 5.45812C83.5048 5.04213 82.7607 4.83412 81.8992 4.83412C81.116 4.83412 80.4111 5.04213 79.7845 5.45812C79.1579 5.87411 78.6619 6.43312 78.2963 7.13512C77.9307 7.83712 77.7481 8.64311 77.7481 9.55312Z" fill="black"/>
<path d="M105.18 13.9844C105.18 11.4603 103.126 9.41406 100.591 9.41406C98.0566 9.41406 96.002 11.4603 96.002 13.9844C96.002 16.5085 98.0566 18.5547 100.591 18.5547C103.126 18.5547 105.18 16.5085 105.18 13.9844Z" fill="#F46D0B"/>
</svg>
